<?xml version="1.0" encoding="UTF-8" standalone="no"?>
<!-- Created with Inkscape (http://www.inkscape.org/) -->

<svg
   xmlns:dc="http://purl.org/dc/elements/1.1/"
   xmlns:cc="http://creativecommons.org/ns#"
   xmlns:rdf="http://www.w3.org/1999/02/22-rdf-syntax-ns#"
   xmlns:svg="http://www.w3.org/2000/svg"
   xmlns="http://www.w3.org/2000/svg"
   xmlns:sodipodi="http://sodipodi.sourceforge.net/DTD/sodipodi-0.dtd"
   xmlns:inkscape="http://www.inkscape.org/namespaces/inkscape"
   id="svg2"
   version="1.1"
   inkscape:version="0.91 r"
   width="100"
   height="100"
   viewBox="0 0 100 100"
   sodipodi:docname="cricket-logo1.svg">
  <metadata
     id="metadata8">
    <rdf:RDF>
      <cc:Work
         rdf:about="">
        <dc:format>image/svg+xml</dc:format>
        <dc:type
           rdf:resource="http://purl.org/dc/dcmitype/StillImage" />
        <dc:title></dc:title>
      </cc:Work>
    </rdf:RDF>
  </metadata>
  <defs
     id="defs6" />
  <sodipodi:namedview
     pagecolor="#ffffff"
     bordercolor="#666666"
     borderopacity="1"
     objecttolerance="10"
     gridtolerance="10"
     guidetolerance="10"
     inkscape:pageopacity="0"
     inkscape:pageshadow="2"
     inkscape:window-width="1329"
     inkscape:window-height="744"
     id="namedview4"
     showgrid="false"
     showborder="true"
     inkscape:zoom="5.4299999"
     inkscape:cx="50.000001"
     inkscape:cy="50"
     inkscape:window-x="37"
     inkscape:window-y="24"
     inkscape:window-maximized="1"
     inkscape:current-layer="svg2"
     fit-margin-top="0"
     fit-margin-left="0"
     fit-margin-right="0"
     fit-margin-bottom="0" />
  <g
     id="cricket-logo"
     transform="matrix(0.2187957,0,0,0.21889381,-1.5292577,-1.3452897)"
     style="fill:#916f6f;stroke-width:0;stroke-miterlimit:4;stroke-dasharray:none">
    <path
       style="fill:#916f6f;stroke-width:0;stroke-miterlimit:4;stroke-dasharray:none"
       d="M 81,461.4856 C 58.747112,458.09458 38.118579,445.75736 25.039334,428.01742 15.613866,415.23326 9.8508383,400.80284 8.0592901,385.5 6.6454614,373.42352 6.6272803,201.7718 8.0383489,187.78922 12.443083,144.14178 36.050884,93.972038 67.061441,62.35724 97.584636,31.239301 131.2476,14.635151 177.5,7.8837708 189.0424,6.1989466 371.84866,5.4276809 385.4539,7.0064065 423.59198,11.431877 452.09789,36.33693 461.51475,73.459291 l 2.52206,9.942273 -0.27764,154.049216 -0.27763,154.04922 -2.20624,7 c -7.9004,25.06655 -24.85535,45.19717 -46.7753,55.53633 -9.92013,4.67911 -16.58513,6.60302 -27.47377,7.93055 C 373.64242,463.59863 91.959245,463.15563 81,461.4856 Z m 312.30259,-18.11023 c 17.52331,-3.95545 35.27646,-17.29168 44.06319,-33.10042 4.9764,-8.95333 7.45102,-16.83713 8.70662,-27.7381 C 447.69551,368.44523 446.78072,84.066365 445.09115,77.5 443.08876,69.717873 435.66685,55.035031 430.85746,49.341342 421.36189,38.099843 407.94053,29.553594 394.18068,25.986872 386.2503,23.931219 384.82814,23.908935 282.82385,24.242073 181.21473,24.57392 179.31607,24.615904 168.41724,26.77186 141.24517,32.146912 118.7651,41.954109 98.827815,57.131073 91.400538,62.784978 77.877006,74.680544 77.197487,76.157538 c -0.166382,0.361646 -1.23405,1.711646 -2.372595,3 C 59.286149,96.740852 44.898253,120.8678 37.349343,142 c -1.866491,5.225 -3.812343,10.4 -4.324116,11.5 -1.235516,2.65561 -5.689135,21.32863 -7.035913,29.5 -0.725794,4.40365 -0.977457,38.91287 -0.780311,107 L 25.5,390.5 l 3.183984,8.26051 c 1.751191,4.54329 4.798454,10.91822 6.771695,14.16653 5.257686,8.65509 17.707601,19.92712 27.17759,24.60633 15.84515,7.82924 3.730748,7.31055 172.669321,7.39301 135.73984,0.0663 151.5215,-0.0886 158,-1.55101 z m -3.01301,-15.72355 c -2.31574,-0.6335 -4.69222,-1.6383 -5.28107,-2.23289 -0.75783,-0.76521 -0.76868,-5.58598 -0.0371,-16.5 0.56843,-8.48041 1.70129,-25.99393 2.51745,-38.91893 0.81616,-12.925 1.98102,-30.475 2.58859,-39 0.60757,-8.525 1.40119,-20.44524 1.76361,-26.48942 0.63875,-10.6526 0.74103,-11.02867 3.33692,-12.27004 4.64568,-2.2216 7.82044,-6.90828 7.83568,-11.56727 0.0216,-6.58895 0.80837,-8.08229 5.59681,-10.62255 3.76234,-1.99592 4.44169,-2.80116 4.18997,-4.96644 -0.25564,-2.19903 -0.85946,-2.63055 -4.05043,-2.89465 -3.52503,-0.29174 -3.75,-0.51127 -3.75,-3.65923 0,-2.79077 -1.01317,-4.32226 -6.07945,-9.18964 -12.56106,-12.06791 -33.08988,-25.06355 -42.52756,-26.9218 -3.00672,-0.59202 -3.14481,-0.46167 -4.27789,4.0382 -0.64398,2.55748 -2.56179,7.7607 -4.2618,11.5627 l -3.09093,6.91273 -4.20699,-2.89449 c -9.50729,-6.54119 -19.61889,-20.47433 -22.13551,-30.50133 -0.91934,-3.66297 -2.93983,-2.54211 -2.82476,1.56703 0.1387,4.95312 5.68953,15.69435 11.45115,22.15874 5.10809,5.73115 14.41575,12.47465 23.53088,17.04839 10.14531,5.09065 30.41401,10.42344 46.42286,12.21408 10.96385,1.22634 11.1491,1.67267 2.35733,5.67957 -16.71187,7.61653 -30.39952,10.30869 -48.29849,9.49963 -25.13081,-1.13596 -45.37875,-10.30968 -65.35771,-29.61157 -4.28937,-4.14402 -9.6316,-9.91014 -11.8716,-12.81361 C 271.3654,234.08507 268.98195,232 267.79506,232 c -1.07895,0 -1.81173,0.42813 -1.62839,0.9514 0.95921,2.73778 14.59484,18.5332 20.04818,23.22369 13.80542,11.87421 19.3547,15.26224 38.14056,23.28617 36.96022,15.78667 54.10768,35.3626 52.34874,59.7625 -1.41439,19.62026 -12.25402,41.12403 -38.03521,75.4546 -5.03006,6.69809 -9.22132,12.09809 -9.31392,12 -0.0926,-0.0981 0.54469,-4.22836 1.41618,-9.17836 2.40562,-13.66375 2.3564,-50.91583 -0.078,-59 -5.27548,-17.51915 -13.02451,-26.32673 -28.18233,-32.03212 -9.21834,-3.46977 -15.748,-4.03494 -23.54722,-2.03812 -10.27286,2.63014 -16.30151,5.90043 -28.26991,15.33524 -6.15658,4.85329 -13.44378,10.3791 -16.19378,12.27958 -2.75,1.90048 -5.225,3.69027 -5.5,3.9773 -0.67623,0.70582 -12.11107,7.88564 -19.5,12.24386 -7.93086,4.67786 -24.69912,13.08817 -36.5,18.307 l -9.5,4.20128 -0.27605,15.11299 -0.27604,15.11299 -5.47396,0 -5.47395,0 0,-12.5 c 0,-10.20593 -0.26396,-12.5 -1.43825,-12.5 -0.79104,0 -5.06604,1.17014 -9.5,2.60032 L 133,401.20063 l 0,9.89969 0,9.89968 -5.5,0 -5.5,0 0,-8.11129 0,-8.11129 -3.63928,0.68273 c -2.0016,0.3755 -5.2641,1.2133 -7.25,1.86176 -3.58581,1.17089 -3.61277,1.22214 -3.90844,7.42856 L 106.90457,421 101.45228,421 96,421 l 0,-4.44098 c 0,-2.44254 -0.351521,-4.65824 -0.781157,-4.92377 -0.429637,-0.26553 -3.917137,0.17908 -7.75,0.98801 -9.588716,2.02372 -28.901106,5.24908 -29.276513,4.88946 -0.169218,-0.1621 3.589742,-2.70627 8.353245,-5.65372 4.763503,-2.94745 13.339454,-8.38894 19.057669,-12.0922 L 96,393.0336 96,318.0168 96,243 l 5.5,0 5.5,0 0,71 c 0,47.38382 0.33774,71 1.01538,71 1.1981,0 12.15295,-7.04161 13.21931,-8.49717 0.40408,-0.55156 0.74158,-30.81533 0.75,-67.25283 L 122,243 l 5.5,0 5.5,0 0,61.94098 c 0,34.06754 0.36228,62.16489 0.80508,62.43855 0.44279,0.27366 4.71779,-2.39564 9.5,-5.93178 L 152,355.0184 152,299.0092 152,243 l 5.5,0 5.5,0 0,51 c 0,34.69823 0.33301,51 1.04182,51 2.29551,0 23.82678,-22.41293 28.62561,-29.79777 9.25412,-14.24102 10.5141,-17.63091 12.89834,-34.70223 0.84497,-6.05 1.93889,-12.35 2.43095,-14 8.45281,-28.3444 18.13494,-45.6703 34.96851,-62.57514 19.06569,-19.14642 36.02542,-26.3419 65.10852,-27.6235 11.05474,-0.48715 14.08107,-0.23811 25.05088,2.06142 32.44698,6.80168 54.89111,22.82883 68.81087,49.13722 1.74603,3.3 3.56411,6.39179 4.04018,6.87064 0.82496,0.82977 1.70643,-3.58424 2.27069,-11.37064 0.25226,-3.48107 0.28209,-3.50164 5.51481,-3.80265 3.76567,-0.21662 5.41152,0.0891 5.79007,1.0756 0.52022,1.35568 0.25925,5.11527 -3.15252,45.4157 -1.9506,23.04082 -1.85443,23.50774 5.62826,27.32512 3.21714,1.64126 3.90724,2.47364 3.53425,4.26286 -0.25492,1.22285 -0.94687,9.19837 -1.53766,17.72337 -0.59078,8.525 -1.51337,20.45 -2.05019,26.5 -0.53682,6.05 -1.65513,20.45 -2.48513,32 -0.83,11.55 -2.03223,28.14298 -2.6716,36.87328 l -1.16251,15.87328 -3.29496,1.37672 c -3.93266,1.64317 -16.10987,1.65892 -22.06961,0.0285 z M 270.50189,171.86363 c -7.81107,-1.82763 -18.08414,-7.78786 -24.38545,-14.14797 -23.44073,-23.65946 -19.01922,-61.73099 9.34783,-80.489594 17.7209,-11.718512 43.51659,-9.981678 60.36683,4.064524 20.51996,17.105235 25.04989,47.58063 10.26638,69.06772 -6.84851,9.95397 -19.85713,18.96579 -31.12529,21.56228 -5.44059,1.25366 -19.00376,1.22209 -24.4703,-0.057 z"
       id="path4144"
       inkscape:connector-curvature="0" />
  </g>
</svg>
